# xmcd
# 
# Track frame offsets:
#     150
#     20159
#     42607
#     62616
# 
# Disc length: 1132
# 
# Revision: 2
# Processed by: cddbd v1.5.2PL0 Copyright (c) Steve Scherf et al.
# Submitted via: BonkEnc v1.0.15
# 
DISCID=34046a04
DTITLE=COSMIC COMIC, RIFF RAFF and ALTERNAIT - なかない君と嘆きの世界 輪廻の刻は暮れゆけど
DYEAR=2006
DGENRE=
TTITLE0=リンネの夢と…
TTITLE1=みちしるべ
TTITLE2=リンネの夢と… (instrumental)
TTITLE3=みちしるべ (instrumental)
EXTD=
EXTT0=
EXTT1=
EXTT2=
EXTT3=
PLAYORDER=
